<svg height="512pt" viewBox="0 -31 512.00172 512" width="512pt" xmlns="http://www.w3.org/2000/svg"><path d="m466 0h-359.996094c-8.285156 0-15 6.71875-15 15 0 8.285156 6.714844 15 15 15h164.996094v35h30v-35h165c8.285156 0 15-6.714844 15-15 0-8.28125-6.714844-15-15-15zm0 0" fill="#394d5c"/><path d="m481 15.003906c0 8.277344-6.71875 15-15 15h-165v35h-15v-64.99999975h180c8.28125 0 15 6.70703175 15 14.99999975zm0 0" fill="#233138"/><path d="m497 390c-8.28125 0-15 6.714844-15 15 0 8.269531-6.726562 15-15 15h-20.835938l-19.246093-37.210938c-12.144531 2.59375-19.933594 2.210938-32.632813 2.210938l18.105469 35h-162.117187c21.945312-43.890625 18.835937-37.65625 19.304687-38.65625-9.671875-2.617188-18.925781-6.617188-27.546875-11.945312l-25.300781 50.601562h-50.726563c-8.285156 0-15 6.714844-15 15 0 8.28125 6.714844 15 15 15h300.996094c24.816406 0 45-20.1875 45-45 0-8.285156-6.714844-15-15-15zm0 0" fill="#394d5c"/><path d="m512 405c0 24.8125-20.1875 45-45 45h-181v-30h126.390625c-17.871094-34.546875-14.757813-28.527344-18.109375-35 12.726562 0 20.460938.386719 32.640625-2.207031 3.171875 6.128906-.175781-.34375 19.238281 37.207031h20.839844c8.269531 0 15-6.730469 15-15 0-8.289062 6.722656-15 15-15 8.28125 0 15 6.710938 15 15zm0 0" fill="#233138"/><path d="m316 60h-60c-8.277344 0-15 6.71875-15 15v50h90v-50c0-8.28125-6.71875-15-15-15zm0 0" fill="#ffc543"/><path d="m316 60.003906h-30v65h45v-50c0-8.28125-6.71875-15-15-15zm0 0" fill="#f90"/><path d="m405.996094 390h-108.859375c-48.597657 0-91.710938-31.855469-105.550781-79.039062l-20.816407-70.960938h-135.765625c-7.519531 0-13.875-5.566406-14.871094-13.019531l-20-149.996094c-1.195312-8.992187 5.808594-16.984375 14.871094-16.984375h61c5.679688 0 10.875 3.210938 13.414063 8.292969l25.855469 51.707031h230.726562c91.503906 0 165.425781 74.265625 165 165.789062-.269531 57.460938-47.375 104.210938-105.003906 104.210938zm0 0" fill="#f9e14e"/><path d="m346 120.003906h-60v269.425782c7.585938.785156 1.699219.570312 119.992188.570312 57.648437 0 104.742187-46.765625 105.007812-104.207031.429688-91.53125-73.5-165.789063-165-165.789063zm0 0" fill="#ffbf00"/><path d="m296 330c-24.8125 0-45-20.1875-45-45s20.1875-45 45-45c24.816406 0 45 20.1875 45 45s-20.183594 45-45 45zm0 0" fill="#ffc543"/><path d="m286 241.132812v87.738282c28.042969 6.445312 55-15.003906 55-43.871094 0-28.914062-27-50.304688-55-43.867188zm0 0" fill="#f90"/><path d="m407.234375 255h101.054687c-12.894531-70.59375-73.6875-135-166.195312-135l26.332031 104.699219c4.453125 17.808593 20.453125 30.300781 38.808594 30.300781zm0 0" fill="#0097f1"/></svg>